<svg width="20" height="15" viewBox="0 0 20 15" fill="none" xmlns="http://www.w3.org/2000/svg">
<path d="M7.04019 1.44668L2.98551 7.49996L7.04019 13.5532C7.11039 13.6519 7.15907 13.7628 7.18335 13.8796C7.20762 13.9964 7.207 14.1167 7.18153 14.2332C7.15605 14.3498 7.10624 14.4603 7.03502 14.5583C6.96381 14.6562 6.87265 14.7396 6.76693 14.8035C6.6612 14.8675 6.54306 14.9106 6.41949 14.9304C6.29592 14.9502 6.16943 14.9462 6.04749 14.9188C5.92555 14.8914 5.81064 14.841 5.70955 14.7706C5.60846 14.7003 5.52325 14.6114 5.45894 14.5092L1.08394 7.97793C0.988299 7.83507 0.9375 7.66927 0.9375 7.49996C0.9375 7.33065 0.988299 7.16485 1.08394 7.02199L5.45894 0.49074C5.59569 0.298638 5.80593 0.164784 6.04494 0.117638C6.28396 0.070492 6.5329 0.113773 6.73885 0.238278C6.9448 0.362784 7.09151 0.558693 7.14778 0.784355C7.20406 1.01002 7.16546 1.24763 7.04019 1.44668ZM18.9152 7.02199L14.5402 0.49074C14.4759 0.38856 14.3907 0.299663 14.2896 0.229306C14.1885 0.158949 14.0736 0.10856 13.9516 0.0811162C13.8297 0.0536726 13.7032 0.0497323 13.5796 0.0695279C13.4561 0.0893235 13.3379 0.132453 13.2322 0.196368C13.1265 0.260282 13.0353 0.343684 12.9641 0.441643C12.8929 0.539602 12.8431 0.65013 12.8176 0.766694C12.7921 0.883257 12.7915 1.00349 12.8158 1.12028C12.8401 1.23708 12.8887 1.34806 12.9589 1.44668L17.0136 7.49996L12.9589 13.5532C12.8887 13.6519 12.8401 13.7628 12.8158 13.8796C12.7915 13.9964 12.7921 14.1167 12.8176 14.2332C12.8431 14.3498 12.8929 14.4603 12.9641 14.5583C13.0353 14.6562 13.1265 14.7396 13.2322 14.8035C13.3379 14.8675 13.4561 14.9106 13.5796 14.9304C13.7032 14.9502 13.8297 14.9462 13.9516 14.9188C14.0736 14.8914 14.1885 14.841 14.2896 14.7706C14.3907 14.7003 14.4759 14.6114 14.5402 14.5092L18.9152 7.97793C19.0108 7.83507 19.0616 7.66927 19.0616 7.49996C19.0616 7.33065 19.0108 7.16485 18.9152 7.02199Z" fill="#ACACAC"/>
</svg>
