<svg width="18" height="19" viewBox="0 0 18 19" fill="none" xmlns="http://www.w3.org/2000/svg">
<path d="M9.75451 15.152C9.85518 15.2579 9.93505 15.3837 9.98956 15.5222C10.0441 15.6607 10.0721 15.8092 10.0721 15.9592C10.0721 16.1092 10.0441 16.2577 9.98956 16.3962C9.93505 16.5348 9.85518 16.6606 9.75451 16.7664L9.21999 17.3306C8.20711 18.3995 6.83336 19 5.40094 19C3.96852 19 2.59477 18.3995 1.5819 17.3306C0.569026 16.2616 0 14.8118 0 13.3001C0 11.7884 0.569026 10.3387 1.5819 9.26974L3.75238 6.98008C4.72558 5.95049 6.03497 5.35256 7.41235 5.30877C8.78973 5.26499 10.1309 5.77866 11.161 6.74456C11.2674 6.84433 11.3541 6.96523 11.4161 7.10036C11.4782 7.23549 11.5145 7.3822 11.5228 7.53212C11.5312 7.68203 11.5115 7.83221 11.4648 7.97409C11.4182 8.11597 11.3455 8.24676 11.251 8.359C11.1565 8.47125 11.0419 8.56274 10.9138 8.62825C10.7858 8.69377 10.6468 8.73203 10.5047 8.74085C10.3627 8.74967 10.2204 8.72887 10.0859 8.67965C9.9515 8.63043 9.82757 8.55374 9.72121 8.45397C9.10347 7.87498 8.29945 7.56696 7.47362 7.59291C6.6478 7.61886 5.86257 7.97682 5.27856 8.59357L3.10988 10.8804C2.50225 11.5216 2.16089 12.3914 2.16089 13.2982C2.16089 14.2051 2.50225 15.0749 3.10988 15.7161C3.71751 16.3574 4.54163 16.7176 5.40094 16.7176C6.26026 16.7176 7.08438 16.3574 7.69201 15.7161L8.22653 15.152C8.32682 15.046 8.44591 14.962 8.577 14.9046C8.70809 14.8473 8.84861 14.8178 8.99052 14.8178C9.13243 14.8178 9.27294 14.8473 9.40403 14.9046C9.53512 14.962 9.65422 15.046 9.75451 15.152ZM16.4207 1.66667C15.407 0.599384 14.0336 0 12.6017 0C11.1698 0 9.79635 0.599384 8.78265 1.66667L8.24813 2.23078C8.04527 2.44486 7.9313 2.73523 7.9313 3.038C7.9313 3.34076 8.04527 3.63113 8.24813 3.84522C8.45099 4.05931 8.72613 4.17958 9.01302 4.17958C9.29991 4.17958 9.57504 4.05931 9.77791 3.84522L10.3124 3.28111C10.9201 2.63985 11.7442 2.2796 12.6035 2.2796C13.4628 2.2796 14.2869 2.63985 14.8946 3.28111C15.5022 3.92237 15.8435 4.7921 15.8435 5.69898C15.8435 6.60585 15.5022 7.47558 14.8946 8.11684L12.725 10.4074C12.1405 11.0239 11.3548 11.3814 10.5288 11.4066C9.70272 11.4319 8.89877 11.123 8.28142 10.5433C8.17507 10.4435 8.05113 10.3668 7.9167 10.3176C7.78226 10.2683 7.63995 10.2476 7.4979 10.2564C7.35584 10.2652 7.21683 10.3034 7.08879 10.369C6.96074 10.4345 6.84618 10.526 6.75165 10.6382C6.65711 10.7505 6.58444 10.8813 6.5378 11.0231C6.49116 11.165 6.47146 11.3152 6.47981 11.4651C6.48817 11.615 6.52442 11.7617 6.5865 11.8969C6.64858 12.032 6.73528 12.1529 6.84163 12.2527C7.87107 13.2184 9.21129 13.7323 10.588 13.6894C11.9648 13.6465 13.2739 13.05 14.2476 12.0219L16.418 9.73223C17.4305 8.66269 17.9995 7.21284 18 5.70099C18.0005 4.18914 17.4325 2.73887 16.4207 1.66857V1.66667Z" fill="white"/>
</svg>
