<svg width="22" height="21" viewBox="0 0 22 21" fill="none" xmlns="http://www.w3.org/2000/svg">
<rect width="22" height="21" fill="#F5F5F5"/>
<g id="&#236;&#160;&#149;&#235;&#179;&#180; &#236;&#158;&#145;&#236;&#132;&#177; &#235;&#170;&#168;&#235;&#139;&#172; step1">
<rect id="Rectangle 1091" x="-70.5" y="-398.5" width="657" height="689" rx="19.5" fill="#242424" stroke="#8A8991"/>
<g id="Frame 1000005434">
<g id="Frame 4144">
<g id="&#234;&#185;&#131;&#237;&#151;&#136;&#235;&#184;&#140;">
<path id="Rectangle 1119" d="M-20.5 0C-20.5 -3.03757 -18.0376 -5.5 -15 -5.5H531C534.038 -5.5 536.5 -3.03757 536.5 0V21C536.5 24.0376 534.038 26.5 531 26.5H-15C-18.0376 26.5 -20.5 24.0376 -20.5 21V0Z" stroke="#9492A0"/>
<path id="Rectangle 1121" d="M-21 0C-21 -3.31371 -18.3137 -6 -15 -6H45V27H-15C-18.3137 27 -21 24.3137 -21 21V0Z" fill="#9492A0"/>
<path id="Vector" d="M11 0C4.9225 0 0 4.8176 0 10.7656C0 15.5294 3.14875 19.553 7.52125 20.9794C8.07125 21.0736 8.2775 20.7507 8.2775 20.4681C8.2775 20.2124 8.26375 19.3646 8.26375 18.463C5.5 18.9609 4.785 17.8036 4.565 17.198C4.44125 16.8885 3.905 15.9331 3.4375 15.6774C3.0525 15.4755 2.5025 14.9776 3.42375 14.9642C4.29 14.9507 4.90875 15.7447 5.115 16.0676C6.105 17.6959 7.68625 17.2384 8.31875 16.9558C8.415 16.256 8.70375 15.785 9.02 15.5159C6.5725 15.2468 4.015 14.3182 4.015 10.2004C4.015 9.02963 4.44125 8.06073 5.1425 7.30714C5.0325 7.038 4.6475 5.93453 5.2525 4.45426C5.2525 4.45426 6.17375 4.17166 8.2775 5.55773C9.1575 5.31551 10.0925 5.19439 11.0275 5.19439C11.9625 5.19439 12.8975 5.31551 13.7775 5.55773C15.8813 4.15821 16.8025 4.45426 16.8025 4.45426C17.4075 5.93453 17.0225 7.038 16.9125 7.30714C17.6138 8.06073 18.04 9.01618 18.04 10.2004C18.04 14.3317 15.4688 15.2468 13.0213 15.5159C13.42 15.8523 13.7638 16.4983 13.7638 17.5075C13.7638 18.9474 13.75 20.1047 13.75 20.4681C13.75 20.7507 13.9563 21.0871 14.5063 20.9794C16.6903 20.2585 18.5882 18.8851 19.9326 17.0527C21.2769 15.2204 22 13.0214 22 10.7656C22 4.8176 17.0775 0 11 0Z" fill="white"/>
</g>
</g>
</g>
</g>
</svg>
