<svg width="20" height="18" viewBox="0 0 20 18" fill="none" xmlns="http://www.w3.org/2000/svg">
<path id="Vector" d="M3.14961 17.9996H16.8504C18.9468 17.9996 20 16.983 20 14.969V3.03059C20 1.01659 18.9468 0 16.8504 0H3.14961C1.06342 0 0 1.007 0 3.03059V14.9694C0 16.993 1.06342 17.9996 3.14961 17.9996ZM3.00924 16.4261C2.11657 16.4261 1.61503 15.9664 1.61503 15.057V5.83759C1.61503 4.93822 2.11657 4.46892 3.00924 4.46892H16.9809C17.8732 4.46892 18.3845 4.93822 18.3845 5.83759V15.057C18.3845 15.9664 17.8732 16.4253 16.9809 16.4253L3.00924 16.4261ZM8.03406 7.97882H8.6259C8.97681 7.97882 9.09748 7.88079 9.09748 7.53872V6.96181C9.09748 6.61974 8.97723 6.51212 8.6259 6.51212H8.03406C7.68316 6.51212 7.57275 6.61974 7.57275 6.96181V7.53872C7.57275 7.88079 7.68316 7.97882 8.03406 7.97882ZM11.3741 7.97882H11.9561C12.3168 7.97882 12.4273 7.88079 12.4273 7.53872V6.96181C12.4273 6.61974 12.3168 6.51212 11.9557 6.51212H11.3741C11.0232 6.51212 10.9029 6.61974 10.9029 6.96181V7.53872C10.9029 7.88079 11.0228 7.97882 11.3741 7.97882ZM14.7039 7.97882H15.2957C15.6466 7.97882 15.7673 7.88079 15.7673 7.53872V6.96181C15.7673 6.61974 15.6466 6.51212 15.2957 6.51212H14.7039C14.353 6.51212 14.2327 6.61974 14.2327 6.96181V7.53872C14.2327 7.88079 14.353 7.97882 14.7039 7.97882ZM4.7043 11.1759H5.29613C5.64704 11.1759 5.76772 11.0778 5.76772 10.7358V10.1588C5.76772 9.81678 5.64704 9.71916 5.29613 9.71916H4.7043C4.35339 9.71916 4.23314 9.81678 4.23314 10.1588V10.7358C4.23314 11.0778 4.35296 11.1759 4.7043 11.1759ZM8.03406 11.1759H8.6259C8.97681 11.1759 9.09748 11.0778 9.09748 10.7358V10.1588C9.09748 9.81678 8.97723 9.71916 8.6259 9.71916H8.03406C7.68316 9.71916 7.57275 9.81678 7.57275 10.1588V10.7358C7.57275 11.0778 7.68316 11.1759 8.03406 11.1759ZM11.3741 11.1759H11.9561C12.3168 11.1759 12.4273 11.0778 12.4273 10.7358V10.1588C12.4273 9.81678 12.3168 9.71916 11.9557 9.71916H11.3741C11.0232 9.71916 10.9029 9.81678 10.9029 10.1588V10.7358C10.9029 11.0778 11.0228 11.1759 11.3741 11.1759ZM14.7039 11.1759H15.2957C15.6466 11.1759 15.7673 11.0778 15.7673 10.7358V10.1588C15.7673 9.81678 15.6466 9.71916 15.2957 9.71916H14.7039C14.353 9.71916 14.2327 9.81678 14.2327 10.1588V10.7358C14.2327 11.0778 14.353 11.1759 14.7039 11.1759ZM4.7043 14.3825H5.29613C5.64704 14.3825 5.76772 14.2749 5.76772 13.9328V13.3559C5.76772 13.0138 5.64704 12.9162 5.29613 12.9162H4.7043C4.35339 12.9162 4.23314 13.0138 4.23314 13.3559V13.9328C4.23314 14.2749 4.35296 14.3825 4.7043 14.3825ZM8.03406 14.3825H8.6259C8.97681 14.3825 9.09748 14.2749 9.09748 13.9328V13.3559C9.09748 13.0138 8.97723 12.9162 8.6259 12.9162H8.03406C7.68316 12.9162 7.57275 13.0138 7.57275 13.3559V13.9328C7.57275 14.2749 7.68316 14.3825 8.03406 14.3825ZM11.3741 14.3825H11.9561C12.3168 14.3825 12.4273 14.2749 12.4273 13.9328V13.3559C12.4273 13.0138 12.3168 12.9162 11.9557 12.9162H11.3741C11.0232 12.9162 10.9029 13.0138 10.9029 13.3559V13.9328C10.9029 14.2749 11.0228 14.3825 11.3741 14.3825Z" fill="#9492A0"/>
</svg>
